<svg width="38" height="40" viewBox="0 0 38 40" fill="none" xmlns="http://www.w3.org/2000/svg">
<g filter="url(#filter0_d_5743_497)">
<path d="M34 9C29.8887 10.5137 26.7559 11.5918 24 15C21.5449 18.0371 18 19.0899 14 17.0879V28H12V1C12 0.44725 12.4473 0 13 0C13.5527 0 14 0.44725 14 1C16.2207 4.2285 20.0801 4.94337 24 5C30 5.08788 34 9 34 9ZM16 22.2656V24.3008C18.3594 24.7832 20 25.8067 20 27.0001C20 28.6563 16.8653 30.0001 13 30.0001C9.13475 30.0001 6 28.6562 6 27C6 25.8066 7.64062 24.7832 10 24.3008V22.2656C6.36719 22.8946 4 24.6562 4 27C4 29.9434 7.70119 32 13 32C18.2988 32 22 29.9434 22 27C22 24.6562 19.6328 22.8946 16 22.2656Z" fill="#D85E54"/>
</g>
<defs>
<filter id="filter0_d_5743_497" x="0" y="0" width="38" height="40" filterUnits="userSpaceOnUse" color-interpolation-filters="sRGB">
<feFlood flood-opacity="0" result="BackgroundImageFix"/>
<feColorMatrix in="SourceAlpha" type="matrix" values="0 0 0 0 0 0 0 0 0 0 0 0 0 0 0 0 0 0 127 0" result="hardAlpha"/>
<feOffset dy="4"/>
<feGaussianBlur stdDeviation="2"/>
<feComposite in2="hardAlpha" operator="out"/>
<feColorMatrix type="matrix" values="0 0 0 0 0 0 0 0 0 0 0 0 0 0 0 0 0 0 0.25 0"/>
<feBlend mode="normal" in2="BackgroundImageFix" result="effect1_dropShadow_5743_497"/>
<feBlend mode="normal" in="SourceGraphic" in2="effect1_dropShadow_5743_497" result="shape"/>
</filter>
</defs>
</svg>
